<svg width="153" height="27" viewBox="0 0 153 27" fill="none" xmlns="http://www.w3.org/2000/svg">
<path d="M15.0469 21.4375L0.015625 15.1719V12L15.0469 5.71875V9.84375L5.76562 13.5781L15.0469 17.2969V21.4375ZM28.5312 0.71875L21.0312 26.9844H16.25L23.7969 0.71875H28.5312ZM45.1562 1.20312V26.5H38.5781V15.875H36.6094V26.5H30.0312V1.20312H36.6094V10.25H38.5781V1.20312H45.1562ZM137.453 5.71875L152.484 11.9688V15.1562L137.453 21.4375V17.3125L146.734 13.5781L137.453 9.85938V5.71875Z" fill="#FF8303"/>
<path d="M47.8125 1.20312H54.4375C56.2292 1.20312 57.6042 1.34375 58.5625 1.625C59.5312 1.90625 60.2552 2.3125 60.7344 2.84375C61.224 3.375 61.5521 4.02083 61.7188 4.78125C61.8958 5.53125 61.9844 6.69792 61.9844 8.28125V10.4844C61.9844 12.099 61.8177 13.276 61.4844 14.0156C61.151 14.7552 60.5365 15.3229 59.6406 15.7188C58.7552 16.1146 57.5938 16.3125 56.1562 16.3125H54.3906V26.5H47.8125V1.20312ZM54.3906 5.53125V11.9688C54.5781 11.9792 54.7396 11.9844 54.875 11.9844C55.4792 11.9844 55.8958 11.8385 56.125 11.5469C56.3646 11.2448 56.4844 10.625 56.4844 9.6875V7.60938C56.4844 6.74479 56.349 6.18229 56.0781 5.92188C55.8073 5.66146 55.2448 5.53125 54.3906 5.53125ZM70.1875 1.20312V4.5H63.6875V1.20312H70.1875ZM70.1875 5.76562V26.5H63.6875V5.76562H70.1875ZM78.1094 13.7969H72.1875V12.4062C72.1875 10.8021 72.3698 9.56771 72.7344 8.70312C73.1094 7.82812 73.8542 7.05729 74.9688 6.39062C76.0833 5.72396 77.5312 5.39062 79.3125 5.39062C81.4479 5.39062 83.0573 5.77083 84.1406 6.53125C85.224 7.28125 85.875 8.20833 86.0938 9.3125C86.3125 10.4062 86.4219 12.6667 86.4219 16.0938V26.5H80.2812V24.6562C79.8958 25.3958 79.3958 25.9531 78.7812 26.3281C78.1771 26.6927 77.4531 26.875 76.6094 26.875C75.5052 26.875 74.4896 26.5677 73.5625 25.9531C72.6458 25.3281 72.1875 23.9688 72.1875 21.875V20.1719C72.1875 18.6198 72.4323 17.5625 72.9219 17C73.4115 16.4375 74.625 15.7812 76.5625 15.0312C78.6354 14.2188 79.7448 13.6719 79.8906 13.3906C80.0365 13.1094 80.1094 12.5365 80.1094 11.6719C80.1094 10.5885 80.026 9.88542 79.8594 9.5625C79.7031 9.22917 79.4375 9.0625 79.0625 9.0625C78.6354 9.0625 78.3698 9.20312 78.2656 9.48438C78.1615 9.75521 78.1094 10.4688 78.1094 11.625V13.7969ZM80.1094 16.6406C79.099 17.3802 78.5104 18 78.3438 18.5C78.1875 19 78.1094 19.7188 78.1094 20.6562C78.1094 21.7292 78.1771 22.4219 78.3125 22.7344C78.4583 23.0469 78.7396 23.2031 79.1562 23.2031C79.5521 23.2031 79.8073 23.0833 79.9219 22.8438C80.0469 22.5938 80.1094 21.9479 80.1094 20.9062V16.6406ZM95.0156 5.76562L94.9062 7.67188C95.3646 6.91146 95.9219 6.34375 96.5781 5.96875C97.2448 5.58333 98.0104 5.39062 98.875 5.39062C99.9583 5.39062 100.844 5.64583 101.531 6.15625C102.219 6.66667 102.661 7.3125 102.859 8.09375C103.057 8.86458 103.156 10.1562 103.156 11.9688V26.5H96.8438V12.1406C96.8438 10.7135 96.7969 9.84375 96.7031 9.53125C96.6094 9.21875 96.349 9.0625 95.9219 9.0625C95.474 9.0625 95.1927 9.24479 95.0781 9.60938C94.9635 9.96354 94.9062 10.9219 94.9062 12.4844V26.5H88.5938V5.76562H95.0156ZM119.297 13.5938H113.344V11.2031C113.344 10.3698 113.276 9.80729 113.141 9.51562C113.005 9.21354 112.755 9.0625 112.391 9.0625C112.026 9.0625 111.781 9.19271 111.656 9.45312C111.531 9.71354 111.469 10.2969 111.469 11.2031V20.9844C111.469 21.724 111.562 22.2812 111.75 22.6562C111.938 23.0208 112.214 23.2031 112.578 23.2031C113.005 23.2031 113.292 23.0104 113.438 22.625C113.594 22.2396 113.672 21.5104 113.672 20.4375V17.9688H119.297C119.286 19.625 119.224 20.8698 119.109 21.7031C119.005 22.526 118.656 23.375 118.062 24.25C117.479 25.1146 116.714 25.7708 115.766 26.2188C114.818 26.6562 113.646 26.875 112.25 26.875C110.469 26.875 109.057 26.5729 108.016 25.9688C106.974 25.3542 106.234 24.5 105.797 23.4062C105.37 22.3021 105.156 20.7396 105.156 18.7188V12.8281C105.156 11.0677 105.333 9.73958 105.688 8.84375C106.042 7.94792 106.797 7.15104 107.953 6.45312C109.109 5.74479 110.516 5.39062 112.172 5.39062C113.818 5.39062 115.224 5.73958 116.391 6.4375C117.557 7.13542 118.333 8.01562 118.719 9.07812C119.104 10.1406 119.297 11.6458 119.297 13.5938ZM135.469 13.0469V18.125C135.469 19.9896 135.375 21.3594 135.188 22.2344C135 23.099 134.599 23.9115 133.984 24.6719C133.37 25.4219 132.578 25.9792 131.609 26.3438C130.651 26.6979 129.547 26.875 128.297 26.875C126.901 26.875 125.719 26.724 124.75 26.4219C123.781 26.1094 123.026 25.6458 122.484 25.0312C121.953 24.4062 121.573 23.6562 121.344 22.7812C121.115 21.8958 121 20.5729 121 18.8125V13.5C121 11.5729 121.208 10.0677 121.625 8.98438C122.042 7.90104 122.792 7.03125 123.875 6.375C124.958 5.71875 126.344 5.39062 128.031 5.39062C129.448 5.39062 130.661 5.60417 131.672 6.03125C132.693 6.44792 133.479 6.99479 134.031 7.67188C134.583 8.34896 134.958 9.04688 135.156 9.76562C135.365 10.4844 135.469 11.5781 135.469 13.0469ZM129.156 11.4844C129.156 10.4219 129.099 9.75521 128.984 9.48438C128.87 9.20312 128.625 9.0625 128.25 9.0625C127.875 9.0625 127.625 9.20312 127.5 9.48438C127.375 9.75521 127.312 10.4219 127.312 11.4844V20.8438C127.312 21.8229 127.375 22.4635 127.5 22.7656C127.625 23.0573 127.87 23.2031 128.234 23.2031C128.609 23.2031 128.854 23.0677 128.969 22.7969C129.094 22.526 129.156 21.9427 129.156 21.0469V11.4844ZM133.578 0.140625L128.438 4.375H125.266L128.016 0.140625H133.578Z" fill="#F0E3CA"/>
</svg>
